<?xml version="1.0" standalone="no"?><!DOCTYPE svg PUBLIC "-//W3C//DTD SVG 1.1//EN" "http://www.w3.org/Graphics/SVG/1.1/DTD/svg11.dtd"><svg t="1523540571589" class="icon" style="" viewBox="0 0 1024 1024" version="1.1" xmlns="http://www.w3.org/2000/svg" p-id="15084" xmlns:xlink="http://www.w3.org/1999/xlink" width="300" height="300"><defs><style type="text/css"></style></defs><path d="M787.5 308.2h-56.9c-18.6 0-33.6-15-33.6-33.6s15-33.6 33.6-33.6h56.9c18.6 0 33.6 15 33.6 33.6s-15.1 33.6-33.6 33.6z" fill="#51a4ef" p-id="15085"></path><path d="M847 64H356.3c-62.4 0-113 50.6-113 113v97.6H177c-62.4 0-113 50.6-113 113V847c0 62.4 50.6 113 113 113h670c62.4 0 113-50.6 113-113V177c0-62.4-50.6-113-113-113z m45.8 783c0 25.3-20.6 45.8-45.8 45.8H177c-25.3 0-45.8-20.6-45.8-45.8V387.6c0-25.3 20.6-45.8 45.8-45.8h66.3v423.1c0 18.6 15 33.6 33.6 33.6s33.6-15 33.6-33.6V177c0-25.3 20.6-45.8 45.8-45.8H847c25.3 0 45.8 20.6 45.8 45.8v670z" fill="#51a4ef" p-id="15086"></path><path d="M787.5 782.9H601.7c-18.6 0-33.6-15-33.6-33.6s15-33.6 33.6-33.6h185.8c18.6 0 33.6 15 33.6 33.6s-15.1 33.6-33.6 33.6z" fill="#51a4ef" p-id="15087"></path><path d="M601.7 308.2H415.9c-18.6 0-33.6-15-33.6-33.6s15-33.6 33.6-33.6h185.8c18.6 0 33.6 15 33.6 33.6s-15.1 33.6-33.6 33.6z" fill="#51a4ef" p-id="15088"></path><path d="M472.8 782.9h-56.9c-18.6 0-33.6-15-33.6-33.6s15-33.6 33.6-33.6h56.9c18.6 0 33.6 15 33.6 33.6s-15 33.6-33.6 33.6z" fill="#51a4ef" p-id="15089"></path><path d="M686.8 624.7H415.9c-18.6 0-33.6-15-33.6-33.6s15-33.6 33.6-33.6h270.9c18.6 0 33.6 15 33.6 33.6s-15.1 33.6-33.6 33.6z" fill="#51a4ef" p-id="15090"></path><path d="M787.5 466.5h-271c-18.6 0-33.6-15-33.6-33.6s15-33.6 33.6-33.6h270.9c18.6 0 33.6 15 33.6 33.6s-15 33.6-33.5 33.6z" fill="#51a4ef" p-id="15091"></path></svg>